<?xml version="1.0" encoding="UTF-8" standalone="no"?>
<!DOCTYPE svg PUBLIC "-//W3C//DTD SVG 1.1//EN" "http://www.w3.org/Graphics/SVG/1.1/DTD/svg11.dtd">
<svg width="100%" height="100%" viewBox="0 0 959 374" version="1.1" xmlns="http://www.w3.org/2000/svg" xmlns:xlink="http://www.w3.org/1999/xlink" xml:space="preserve" style="fill-rule:evenodd;clip-rule:evenodd;stroke-linejoin:round;stroke-miterlimit:1.41421;">
    <g transform="matrix(1,0,0,1,-64,-128)">
        <g transform="matrix(0.923077,0,0,0.967742,-54.1538,4.25806)">
            <rect x="128" y="194" width="65" height="62" style="fill:rgb(45,137,200);"/>
        </g>
        <g transform="matrix(0.923077,0,0,0.967742,-54.1538,68.2581)">
            <rect x="128" y="194" width="65" height="62" style="fill:rgb(45,137,200);"/>
        </g>
        <g transform="matrix(0.923077,0,0,0.967742,9.84615,-59.7419)">
            <rect x="128" y="194" width="65" height="62" style="fill:rgb(45,137,200);"/>
        </g>
        <g transform="matrix(0.923077,0,0,0.967742,73.8462,-59.7419)">
            <rect x="128" y="194" width="65" height="62" style="fill:rgb(45,137,200);"/>
        </g>
        <g transform="matrix(0.923077,0,0,0.967742,201.846,-59.7419)">
            <rect x="128" y="194" width="65" height="62" style="fill:rgb(45,137,200);"/>
        </g>
        <g transform="matrix(0.923077,0,0,0.967742,201.846,4.25806)">
            <rect x="128" y="194" width="65" height="62" style="fill:rgb(45,137,200);"/>
        </g>
        <g transform="matrix(0.923077,0,0,0.967742,201.846,68.2581)">
            <rect x="128" y="194" width="65" height="62" style="fill:rgb(45,137,200);"/>
        </g>
        <g transform="matrix(0.923077,0,0,0.967742,265.846,4.25806)">
            <rect x="128" y="194" width="65" height="62" style="fill:rgb(45,137,200);"/>
        </g>
        <g transform="matrix(0.923077,0,0,0.967742,329.846,4.25806)">
            <rect x="128" y="194" width="65" height="62" style="fill:rgb(45,137,200);"/>
        </g>
        <g transform="matrix(0.923077,0,0,0.967742,329.846,68.2581)">
            <rect x="128" y="194" width="65" height="62" style="fill:rgb(45,137,200);"/>
        </g>
        <g transform="matrix(0.923077,0,0,0.967742,457.846,4.25806)">
            <rect x="128" y="194" width="65" height="62" style="fill:rgb(45,137,200);"/>
        </g>
        <g transform="matrix(0.923077,0,0,0.967742,521.846,-59.7419)">
            <rect x="128" y="194" width="65" height="62" style="fill:rgb(45,137,200);"/>
        </g>
        <g transform="matrix(0.923077,0,0,0.967742,585.846,4.25806)">
            <rect x="128" y="194" width="65" height="62" style="fill:rgb(45,137,200);"/>
        </g>
        <g transform="matrix(0.923077,0,0,0.967742,521.846,68.2581)">
            <rect x="128" y="194" width="65" height="62" style="fill:rgb(45,137,200);"/>
        </g>
        <g transform="matrix(0.923077,0,0,0.967742,713.846,-59.7419)">
            <rect x="128" y="194" width="65" height="62" style="fill:rgb(45,137,200);"/>
        </g>
        <g transform="matrix(0.923077,0,0,0.967742,713.846,4.25806)">
            <rect x="128" y="194" width="65" height="62" style="fill:rgb(45,137,200);"/>
        </g>
        <g transform="matrix(0.923077,0,0,0.967742,713.846,68.2581)">
            <rect x="128" y="194" width="65" height="62" style="fill:rgb(45,137,200);"/>
        </g>
        <g transform="matrix(0.923077,0,0,0.967742,777.846,4.25806)">
            <rect x="128" y="194" width="65" height="62" style="fill:rgb(45,137,200);"/>
        </g>
        <g transform="matrix(0.923077,0,0,0.967742,841.846,-59.7419)">
            <rect x="128" y="194" width="65" height="62" style="fill:rgb(45,137,200);"/>
        </g>
        <g transform="matrix(0.923077,0,0,0.967742,841.846,68.2581)">
            <rect x="128" y="194" width="65" height="62" style="fill:rgb(45,137,200);"/>
        </g>
        <g transform="matrix(2.39375,0,0,2.39375,-323.426,-463.193)">
            <path d="M170.04,349.814L167.473,349.814L167.473,359.166L162.305,359.166L162.305,333.572L170.55,333.572C173.139,333.572 175.14,334.243 176.553,335.585C177.965,336.926 178.671,338.834 178.671,341.306C178.671,344.705 177.434,347.084 174.962,348.443L179.444,358.92L179.444,359.166L173.889,359.166L170.04,349.814ZM167.473,345.507L170.409,345.507C171.44,345.507 172.214,345.165 172.729,344.479C173.245,343.794 173.503,342.877 173.503,341.728C173.503,339.162 172.501,337.879 170.497,337.879L167.473,337.879L167.473,345.507Z" style="fill-rule:nonzero;"/>
            <path d="M191.407,359.166C191.266,358.873 191.125,358.38 190.985,357.689C190.094,358.908 188.887,359.517 187.364,359.517C185.77,359.517 184.449,358.99 183.4,357.935C182.351,356.88 181.826,355.515 181.826,353.839C181.826,351.847 182.462,350.306 183.734,349.216C185.005,348.127 186.836,347.57 189.227,347.546L190.739,347.546L190.739,346.017C190.739,345.162 190.592,344.558 190.299,344.207C190.006,343.855 189.578,343.679 189.016,343.679C187.774,343.679 187.153,344.406 187.153,345.859L182.178,345.859C182.178,344.101 182.837,342.651 184.156,341.508C185.474,340.366 187.141,339.795 189.157,339.795C191.242,339.795 192.857,340.337 193.999,341.421C195.142,342.504 195.713,344.054 195.713,346.07L195.713,355.017C195.737,356.658 195.971,357.941 196.416,358.867L196.416,359.166L191.407,359.166ZM188.471,355.615C189.022,355.615 189.491,355.504 189.877,355.281C190.264,355.058 190.551,354.795 190.739,354.49L190.739,350.535L189.543,350.535C188.7,350.535 188.034,350.804 187.548,351.343C187.062,351.882 186.819,352.603 186.819,353.505C186.819,354.912 187.369,355.615 188.471,355.615Z" style="fill-rule:nonzero;"/>
            <path d="M204.265,340.146L204.406,342.027C205.531,340.539 207.002,339.795 208.818,339.795C212.088,339.795 213.769,342.086 213.863,346.668L213.863,359.166L208.871,359.166L208.871,347.037C208.871,345.959 208.71,345.176 208.388,344.69C208.065,344.204 207.5,343.961 206.691,343.961C205.789,343.961 205.086,344.423 204.582,345.349L204.582,359.166L199.59,359.166L199.59,340.146L204.265,340.146Z" style="fill-rule:nonzero;"/>
            <path d="M217.159,349.076C217.159,345.959 217.687,343.632 218.742,342.097C219.796,340.562 221.331,339.795 223.347,339.795C224.812,339.795 226.031,340.427 227.003,341.693L227.003,332.166L232.013,332.166L232.013,359.166L227.495,359.166L227.267,357.232C226.247,358.755 224.935,359.517 223.329,359.517C221.337,359.517 219.817,358.755 218.768,357.232C217.719,355.709 217.183,353.47 217.159,350.517L217.159,349.076ZM222.152,350.324C222.152,352.199 222.351,353.508 222.749,354.253C223.148,354.997 223.822,355.369 224.771,355.369C225.755,355.369 226.499,354.929 227.003,354.05L227.003,345.367C226.511,344.429 225.773,343.961 224.788,343.961C223.874,343.961 223.206,344.33 222.784,345.068C222.363,345.806 222.152,347.119 222.152,349.005L222.152,350.324Z" style="fill-rule:nonzero;"/>
            <path d="M235.485,349.041C235.485,346.158 236.165,343.896 237.524,342.255C238.884,340.615 240.764,339.795 243.167,339.795C245.593,339.795 247.485,340.615 248.845,342.255C250.204,343.896 250.884,346.17 250.884,349.076L250.884,350.289C250.884,353.183 250.21,355.445 248.862,357.074C247.514,358.703 245.628,359.517 243.202,359.517C240.764,359.517 238.869,358.7 237.515,357.065C236.162,355.43 235.485,353.16 235.485,350.254L235.485,349.041ZM240.477,350.289C240.477,353.687 241.386,355.386 243.202,355.386C244.878,355.386 245.78,353.968 245.909,351.132L245.927,349.041C245.927,347.306 245.686,346.02 245.206,345.182C244.725,344.344 244.046,343.925 243.167,343.925C242.323,343.925 241.664,344.344 241.189,345.182C240.715,346.02 240.477,347.306 240.477,349.041L240.477,350.289Z" style="fill-rule:nonzero;"/>
            <path d="M259.049,340.146L259.19,341.904C260.303,340.498 261.774,339.795 263.602,339.795C265.5,339.795 266.842,340.65 267.627,342.361C268.717,340.65 270.27,339.795 272.285,339.795C275.614,339.795 277.319,342.097 277.401,346.703L277.401,359.166L272.426,359.166L272.426,347.019C272.426,345.918 272.274,345.132 271.969,344.664C271.664,344.195 271.149,343.961 270.422,343.961C269.496,343.961 268.805,344.529 268.348,345.666L268.383,346.263L268.383,359.166L263.409,359.166L263.409,347.054C263.409,345.964 263.262,345.176 262.969,344.69C262.676,344.204 262.155,343.961 261.405,343.961C260.549,343.961 259.869,344.423 259.366,345.349L259.366,359.166L254.391,359.166L254.391,340.146L259.049,340.146Z" style="fill-rule:nonzero;"/>
            <path d="M308.357,359.166L303.206,359.166L303.206,348.214L295.577,348.214L295.577,359.166L290.41,359.166L290.41,333.572L295.577,333.572L295.577,343.925L303.206,343.925L303.206,333.572L308.357,333.572L308.357,359.166Z" style="fill-rule:nonzero;"/>
            <path d="M321.69,359.166C321.55,358.873 321.409,358.38 321.268,357.689C320.378,358.908 319.171,359.517 317.647,359.517C316.054,359.517 314.732,358.99 313.683,357.935C312.635,356.88 312.11,355.515 312.11,353.839C312.11,351.847 312.746,350.306 314.017,349.216C315.289,348.127 317.12,347.57 319.511,347.546L321.022,347.546L321.022,346.017C321.022,345.162 320.876,344.558 320.583,344.207C320.29,343.855 319.862,343.679 319.3,343.679C318.057,343.679 317.436,344.406 317.436,345.859L312.462,345.859C312.462,344.101 313.121,342.651 314.439,341.508C315.758,340.366 317.425,339.795 319.44,339.795C321.526,339.795 323.14,340.337 324.283,341.421C325.426,342.504 325.997,344.054 325.997,346.07L325.997,355.017C326.02,356.658 326.255,357.941 326.7,358.867L326.7,359.166L321.69,359.166ZM318.755,355.615C319.306,355.615 319.774,355.504 320.161,355.281C320.548,355.058 320.835,354.795 321.022,354.49L321.022,350.535L319.827,350.535C318.983,350.535 318.318,350.804 317.832,351.343C317.346,351.882 317.102,352.603 317.102,353.505C317.102,354.912 317.653,355.615 318.755,355.615Z" style="fill-rule:nonzero;"/>
            <path d="M336.869,355.386C338.311,355.386 339.043,354.449 339.067,352.574L343.743,352.574C343.719,354.648 343.08,356.324 341.827,357.601C340.573,358.879 338.955,359.517 336.975,359.517C334.526,359.517 332.657,358.755 331.368,357.232C330.078,355.709 329.422,353.464 329.399,350.5L329.399,348.988C329.399,346 330.035,343.72 331.306,342.15C332.577,340.58 334.455,339.795 336.94,339.795C339.037,339.795 340.69,340.442 341.897,341.737C343.104,343.032 343.719,344.869 343.743,347.248L339.067,347.248C339.055,346.181 338.879,345.361 338.539,344.787C338.2,344.213 337.637,343.925 336.852,343.925C335.985,343.925 335.364,344.233 334.989,344.848C334.614,345.463 334.414,346.656 334.391,348.425L334.391,350.359C334.391,351.906 334.467,352.987 334.619,353.602C334.772,354.217 335.024,354.669 335.375,354.956C335.727,355.243 336.225,355.386 336.869,355.386Z" style="fill-rule:nonzero;"/>
            <path d="M353.262,351.836L351.926,353.33L351.926,359.166L346.951,359.166L346.951,332.166L351.926,332.166L351.926,346.755L352.541,345.841L355.986,340.146L361.91,340.146L356.39,347.986L362.437,359.166L356.742,359.166L353.262,351.836Z" style="fill-rule:nonzero;"/>
            <path d="M372.994,354.068C372.994,353.646 372.791,353.256 372.387,352.899C371.983,352.542 371.083,352.058 369.689,351.449C367.638,350.617 366.229,349.755 365.461,348.865C364.694,347.974 364.31,346.867 364.31,345.543C364.31,343.879 364.91,342.504 366.112,341.421C367.313,340.337 368.904,339.795 370.884,339.795C372.97,339.795 374.64,340.334 375.894,341.412C377.148,342.49 377.775,343.937 377.775,345.754L372.8,345.754C372.8,344.207 372.156,343.433 370.867,343.433C370.339,343.433 369.906,343.597 369.566,343.925C369.226,344.254 369.056,344.711 369.056,345.296C369.056,345.718 369.244,346.09 369.619,346.413C369.994,346.735 370.878,347.195 372.273,347.793C374.3,348.543 375.733,349.378 376.571,350.297C377.409,351.217 377.827,352.41 377.827,353.875C377.827,355.574 377.189,356.939 375.911,357.97C374.634,359.002 372.958,359.517 370.884,359.517C369.49,359.517 368.259,359.245 367.193,358.7C366.126,358.155 365.291,357.396 364.688,356.423C364.084,355.451 363.783,354.402 363.783,353.277L368.511,353.277C368.535,354.144 368.737,354.795 369.118,355.228C369.498,355.662 370.122,355.879 370.99,355.879C372.326,355.879 372.994,355.275 372.994,354.068Z" style="fill-rule:nonzero;"/>
            <path d="M389.43,349.041C389.43,346.158 390.11,343.896 391.469,342.255C392.828,340.615 394.709,339.795 397.112,339.795C399.537,339.795 401.43,340.615 402.789,342.255C404.149,343.896 404.828,346.17 404.828,349.076L404.828,350.289C404.828,353.183 404.155,355.445 402.807,357.074C401.459,358.703 399.573,359.517 397.147,359.517C394.709,359.517 392.814,358.7 391.46,357.065C390.107,355.43 389.43,353.16 389.43,350.254L389.43,349.041ZM394.422,350.289C394.422,353.687 395.33,355.386 397.147,355.386C398.823,355.386 399.725,353.968 399.854,351.132L399.871,349.041C399.871,347.306 399.631,346.02 399.151,345.182C398.67,344.344 397.991,343.925 397.112,343.925C396.268,343.925 395.609,344.344 395.134,345.182C394.66,346.02 394.422,347.306 394.422,349.041L394.422,350.289Z" style="fill-rule:nonzero;"/>
            <path d="M409.461,359.166L409.461,343.89L407.158,343.89L407.158,340.146L409.461,340.146L409.461,338.441C409.473,336.343 410.026,334.712 411.122,333.546C412.218,332.379 413.732,331.796 415.666,331.796C416.252,331.796 417.002,331.914 417.916,332.148L417.881,336.121C417.541,336.015 417.137,335.963 416.668,335.963C415.191,335.963 414.453,336.841 414.453,338.599L414.453,340.146L417.424,340.146L417.424,343.89L414.453,343.89L414.453,359.166L409.461,359.166Z" style="fill-rule:nonzero;"/>
            <path d="M436.655,349.287L434.616,351.853L434.616,359.166L429.448,359.166L429.448,333.572L434.616,333.572L434.616,344.734L436.251,341.974L441.015,333.572L447.343,333.572L440.013,344.822L447.466,359.166L441.331,359.166L436.655,349.287Z" style="fill-rule:nonzero;"/>
            <path d="M454.735,359.166L449.743,359.166L449.743,340.146L454.735,340.146L454.735,359.166ZM449.514,335.224C449.514,334.451 449.76,333.818 450.252,333.326C450.745,332.834 451.401,332.588 452.221,332.588C453.041,332.588 453.698,332.834 454.19,333.326C454.682,333.818 454.928,334.451 454.928,335.224C454.928,335.986 454.685,336.619 454.199,337.123C453.712,337.627 453.053,337.879 452.221,337.879C451.389,337.879 450.73,337.627 450.244,337.123C449.757,336.619 449.514,335.986 449.514,335.224Z" style="fill-rule:nonzero;"/>
            <path d="M463.533,340.146L463.674,342.027C464.799,340.539 466.269,339.795 468.086,339.795C471.355,339.795 473.037,342.086 473.131,346.668L473.131,359.166L468.139,359.166L468.139,347.037C468.139,345.959 467.977,345.176 467.655,344.69C467.333,344.204 466.767,343.961 465.959,343.961C465.057,343.961 464.353,344.423 463.849,345.349L463.849,359.166L458.857,359.166L458.857,340.146L463.533,340.146Z" style="fill-rule:nonzero;"/>
            <path d="M476.427,349.076C476.427,345.959 476.954,343.632 478.009,342.097C479.064,340.562 480.599,339.795 482.615,339.795C484.079,339.795 485.298,340.427 486.271,341.693L486.271,332.166L491.281,332.166L491.281,359.166L486.763,359.166L486.535,357.232C485.515,358.755 484.203,359.517 482.597,359.517C480.605,359.517 479.084,358.755 478.036,357.232C476.987,355.709 476.451,353.47 476.427,350.517L476.427,349.076ZM481.419,350.324C481.419,352.199 481.619,353.508 482.017,354.253C482.415,354.997 483.089,355.369 484.038,355.369C485.023,355.369 485.767,354.929 486.271,354.05L486.271,345.367C485.779,344.429 485.04,343.961 484.056,343.961C483.142,343.961 482.474,344.33 482.052,345.068C481.63,345.806 481.419,347.119 481.419,349.005L481.419,350.324Z" style="fill-rule:nonzero;"/>
            <path d="M499.886,340.146L500.026,342.027C501.151,340.539 502.622,339.795 504.438,339.795C507.708,339.795 509.39,342.086 509.483,346.668L509.483,359.166L504.491,359.166L504.491,347.037C504.491,345.959 504.33,345.176 504.008,344.69C503.685,344.204 503.12,343.961 502.311,343.961C501.409,343.961 500.706,344.423 500.202,345.349L500.202,359.166L495.21,359.166L495.21,340.146L499.886,340.146Z" style="fill-rule:nonzero;"/>
            <path d="M521.129,359.517C518.575,359.517 516.582,358.755 515.153,357.232C513.723,355.709 513.008,353.529 513.008,350.693L513.008,349.181C513.008,346.181 513.664,343.867 514.977,342.238C516.289,340.609 518.17,339.795 520.62,339.795C523.01,339.795 524.809,340.559 526.016,342.088C527.223,343.618 527.838,345.882 527.862,348.882L527.862,351.326L517.965,351.326C518.036,352.732 518.346,353.76 518.897,354.411C519.448,355.061 520.297,355.386 521.446,355.386C523.11,355.386 524.498,354.818 525.612,353.681L527.563,356.687C526.954,357.531 526.069,358.213 524.909,358.735C523.748,359.256 522.489,359.517 521.129,359.517ZM518,347.845L522.975,347.845L522.975,347.388C522.952,346.252 522.764,345.39 522.412,344.804C522.061,344.218 521.452,343.925 520.584,343.925C519.717,343.925 519.087,344.236 518.695,344.857C518.302,345.478 518.071,346.474 518,347.845Z" style="fill-rule:nonzero;"/>
            <path d="M539.49,354.068C539.49,353.646 539.288,353.256 538.884,352.899C538.479,352.542 537.58,352.058 536.185,351.449C534.135,350.617 532.725,349.755 531.958,348.865C531.19,347.974 530.807,346.867 530.807,345.543C530.807,343.879 531.407,342.504 532.608,341.421C533.809,340.337 535.4,339.795 537.381,339.795C539.467,339.795 541.137,340.334 542.391,341.412C543.644,342.49 544.271,343.937 544.271,345.754L539.297,345.754C539.297,344.207 538.652,343.433 537.363,343.433C536.836,343.433 536.402,343.597 536.062,343.925C535.723,344.254 535.553,344.711 535.553,345.296C535.553,345.718 535.74,346.09 536.115,346.413C536.49,346.735 537.375,347.195 538.769,347.793C540.797,348.543 542.229,349.378 543.067,350.297C543.905,351.217 544.324,352.41 544.324,353.875C544.324,355.574 543.685,356.939 542.408,357.97C541.131,359.002 539.455,359.517 537.381,359.517C535.986,359.517 534.756,359.245 533.689,358.7C532.623,358.155 531.788,357.396 531.184,356.423C530.581,355.451 530.279,354.402 530.279,353.277L535.008,353.277C535.031,354.144 535.233,354.795 535.614,355.228C535.995,355.662 536.619,355.879 537.486,355.879C538.822,355.879 539.49,355.275 539.49,354.068Z" style="fill-rule:nonzero;"/>
            <path d="M556.234,354.068C556.234,353.646 556.032,353.256 555.627,352.899C555.223,352.542 554.324,352.058 552.929,351.449C550.878,350.617 549.469,349.755 548.702,348.865C547.934,347.974 547.55,346.867 547.55,345.543C547.55,343.879 548.151,342.504 549.352,341.421C550.553,340.337 552.144,339.795 554.124,339.795C556.21,339.795 557.88,340.334 559.134,341.412C560.388,342.49 561.015,343.937 561.015,345.754L556.04,345.754C556.04,344.207 555.396,343.433 554.107,343.433C553.579,343.433 553.146,343.597 552.806,343.925C552.466,344.254 552.296,344.711 552.296,345.296C552.296,345.718 552.484,346.09 552.859,346.413C553.234,346.735 554.119,347.195 555.513,347.793C557.54,348.543 558.973,349.378 559.811,350.297C560.649,351.217 561.068,352.41 561.068,353.875C561.068,355.574 560.429,356.939 559.152,357.97C557.874,359.002 556.199,359.517 554.124,359.517C552.73,359.517 551.499,359.245 550.433,358.7C549.367,358.155 548.532,357.396 547.928,356.423C547.325,355.451 547.023,354.402 547.023,353.277L551.751,353.277C551.775,354.144 551.977,354.795 552.358,355.228C552.739,355.662 553.363,355.879 554.23,355.879C555.566,355.879 556.234,355.275 556.234,354.068Z" style="fill-rule:nonzero;"/>
            <path d="M162.288,395.166L162.288,369.572L170.198,369.572C172.87,369.572 174.9,370.167 176.289,371.356C177.678,372.546 178.372,374.289 178.372,376.586C178.372,377.886 178.085,379.005 177.511,379.943C176.936,380.88 176.151,381.566 175.155,382C176.304,382.328 177.188,382.987 177.809,383.977C178.43,384.967 178.741,386.189 178.741,387.642C178.741,390.127 178.058,392.002 176.693,393.267C175.328,394.533 173.35,395.166 170.761,395.166L162.288,395.166ZM167.456,384.039L167.456,390.877L170.761,390.877C171.686,390.877 172.389,390.589 172.87,390.015C173.35,389.441 173.591,388.627 173.591,387.572C173.591,385.275 172.759,384.097 171.095,384.039L167.456,384.039ZM167.456,380.277L170.145,380.277C172.173,380.277 173.186,379.228 173.186,377.13C173.186,375.97 172.952,375.138 172.483,374.634C172.014,374.13 171.253,373.879 170.198,373.879L167.456,373.879L167.456,380.277Z" style="fill-rule:nonzero;"/>
            <path d="M189.921,395.517C187.366,395.517 185.374,394.755 183.944,393.232C182.514,391.709 181.8,389.529 181.8,386.693L181.8,385.181C181.8,382.181 182.456,379.867 183.768,378.238C185.081,376.609 186.962,375.795 189.411,375.795C191.802,375.795 193.6,376.559 194.807,378.088C196.014,379.618 196.63,381.882 196.653,384.882L196.653,387.326L186.757,387.326C186.827,388.732 187.137,389.76 187.688,390.411C188.239,391.061 189.089,391.386 190.237,391.386C191.901,391.386 193.29,390.818 194.403,389.681L196.354,392.687C195.745,393.531 194.86,394.213 193.7,394.735C192.54,395.256 191.28,395.517 189.921,395.517ZM186.792,383.845L191.766,383.845L191.766,383.388C191.743,382.252 191.555,381.39 191.204,380.804C190.852,380.218 190.243,379.925 189.376,379.925C188.509,379.925 187.879,380.236 187.486,380.857C187.094,381.478 186.862,382.474 186.792,383.845Z" style="fill-rule:nonzero;"/>
            <path d="M208.852,380.945L207.2,380.804C205.841,380.804 204.921,381.402 204.44,382.597L204.44,395.166L199.448,395.166L199.448,376.146L204.141,376.146L204.282,378.203C205.067,376.597 206.151,375.795 207.534,375.795C208.096,375.795 208.554,375.871 208.905,376.023L208.852,380.945Z" style="fill-rule:nonzero;"/>
            <rect x="211.63" y="368.166" width="4.992" height="27" style="fill-rule:nonzero;"/>
            <path d="M225.692,395.166L220.7,395.166L220.7,376.146L225.692,376.146L225.692,395.166ZM220.471,371.224C220.471,370.451 220.718,369.818 221.21,369.326C221.702,368.834 222.358,368.588 223.179,368.588C223.999,368.588 224.655,368.834 225.147,369.326C225.639,369.818 225.886,370.451 225.886,371.224C225.886,371.986 225.642,372.619 225.156,373.123C224.67,373.627 224.011,373.879 223.179,373.879C222.346,373.879 221.687,373.627 221.201,373.123C220.715,372.619 220.471,371.986 220.471,371.224Z" style="fill-rule:nonzero;"/>
            <path d="M234.095,376.146L234.235,378.027C235.36,376.539 236.831,375.795 238.647,375.795C241.917,375.795 243.598,378.086 243.692,382.668L243.692,395.166L238.7,395.166L238.7,383.037C238.7,381.959 238.539,381.176 238.217,380.69C237.894,380.204 237.329,379.961 236.52,379.961C235.618,379.961 234.915,380.423 234.411,381.349L234.411,395.166L229.419,395.166L229.419,376.146L234.095,376.146Z" style="fill-rule:nonzero;"/>
            <path d="M271.343,395.166L266.315,395.166L268.214,384.214L260.848,384.214L258.95,395.166L253.905,395.166L258.335,369.572L263.38,369.572L261.587,379.925L268.952,379.925L270.763,369.572L275.79,369.572L271.343,395.166Z" style="fill:rgb(156,156,156);fill-rule:nonzero;"/>
            <path d="M284.315,395.166C284.221,394.767 284.175,394.275 284.175,393.689C283.096,394.92 281.866,395.535 280.483,395.535C279.018,395.511 277.844,394.972 276.959,393.918C276.074,392.863 275.667,391.55 275.737,389.98C275.843,387.964 276.628,386.385 278.093,385.243C279.557,384.1 281.526,383.529 283.999,383.529L285.423,383.529L285.651,381.982L285.704,381.191C285.704,380.171 285.294,379.662 284.473,379.662C283.337,379.627 282.645,380.353 282.399,381.841L277.565,381.877C277.671,380.072 278.421,378.598 279.815,377.456C281.21,376.313 282.909,375.754 284.913,375.777C286.8,375.824 288.244,376.419 289.246,377.561C290.248,378.704 290.655,380.213 290.468,382.088L288.921,391.755L288.85,392.687C288.804,393.507 288.886,394.228 289.096,394.849L289.079,395.166L284.315,395.166ZM281.819,391.65C282.675,391.673 283.471,391.298 284.21,390.525L285.071,386.5L284.016,386.5C283.079,386.546 282.323,386.863 281.749,387.449C281.175,388.035 280.829,388.773 280.712,389.664L280.694,390.332C280.694,390.707 280.791,391.017 280.984,391.263C281.178,391.509 281.456,391.638 281.819,391.65Z" style="fill:rgb(156,156,156);fill-rule:nonzero;"/>
            <path d="M299.327,391.421C300.663,391.457 301.489,390.513 301.805,388.591L306.358,388.574C306.159,390.683 305.38,392.382 304.02,393.671C302.661,394.961 301.003,395.582 299.046,395.535C297.276,395.488 295.867,394.958 294.818,393.944C293.769,392.93 293.145,391.515 292.946,389.699C292.77,388.222 292.855,386.441 293.201,384.355C293.547,382.269 294.188,380.529 295.126,379.134C296.661,376.838 298.846,375.724 301.682,375.795C303.604,375.853 305.069,376.547 306.077,377.878C307.085,379.208 307.536,381.004 307.43,383.265L302.86,383.248L302.878,382.158C302.831,380.705 302.257,379.949 301.155,379.89C299.432,379.796 298.407,381.132 298.079,383.898L297.745,387.08C297.604,388.029 297.557,388.82 297.604,389.453C297.686,390.73 298.261,391.386 299.327,391.421Z" style="fill:rgb(156,156,156);fill-rule:nonzero;"/>
            <path d="M315.657,387.906L313.952,389.523L312.968,395.166L308.116,395.166L312.809,368.166L317.661,368.166L314.971,382.808L315.745,381.859L320.052,376.146L326.116,376.146L319.19,384.214L323.057,395.166L317.731,395.166L315.657,387.906Z" style="fill:rgb(156,156,156);fill-rule:nonzero;"/>
            <path d="M330.106,395.166L325.237,395.166L328.542,376.146L333.411,376.146L330.106,395.166ZM329.175,371.312C329.175,370.504 329.429,369.844 329.939,369.335C330.449,368.825 331.073,368.57 331.811,368.57C332.538,368.546 333.156,368.784 333.666,369.282C334.176,369.78 334.43,370.398 334.43,371.136C334.43,371.957 334.176,372.622 333.666,373.131C333.156,373.641 332.532,373.896 331.794,373.896C331.044,373.92 330.42,373.682 329.922,373.184C329.424,372.686 329.175,372.062 329.175,371.312Z" style="fill:rgb(156,156,156);fill-rule:nonzero;"/>
            <path d="M341.708,376.129L341.356,378.045C342.692,376.486 344.175,375.73 345.804,375.777C347.139,375.8 348.156,376.301 348.853,377.28C349.551,378.258 349.893,379.65 349.882,381.455L349.776,383.072L347.755,395.166L342.886,395.166L344.889,383.037L344.977,382C345.024,380.629 344.509,379.943 343.43,379.943C342.927,379.943 342.499,380.081 342.147,380.356C341.796,380.631 341.468,380.957 341.163,381.332L338.755,395.166L333.868,395.166L337.173,376.146L341.708,376.129Z" style="fill:rgb(156,156,156);fill-rule:nonzero;"/>
            <path d="M360.024,375.795C361.712,375.841 362.942,376.533 363.716,377.869L364.313,376.129L368.743,376.146L365.509,395.166C365.169,397.638 364.222,399.525 362.67,400.826C361.117,402.127 359.163,402.742 356.807,402.671C355.776,402.648 354.757,402.437 353.749,402.039C352.741,401.64 351.897,401.089 351.218,400.386L353.204,396.976C354.177,398.078 355.389,398.652 356.843,398.699C358.952,398.781 360.241,397.621 360.71,395.218L361.061,393.636C359.925,394.902 358.671,395.535 357.3,395.535C355.636,395.511 354.379,394.87 353.529,393.61C352.679,392.35 352.266,390.607 352.29,388.38C352.29,386.998 352.428,385.518 352.703,383.942C352.978,382.366 353.374,381.033 353.889,379.943C355.225,377.107 357.27,375.724 360.024,375.795ZM357.089,388.328C357.089,390.32 357.727,391.334 359.005,391.369C359.86,391.392 360.663,391.029 361.413,390.279L363.048,381.138C362.602,380.377 361.958,379.972 361.114,379.925C359.052,379.82 357.809,381.484 357.388,384.918C357.188,386.558 357.089,387.695 357.089,388.328Z" style="fill:rgb(156,156,156);fill-rule:nonzero;"/>
            <path d="M378.429,395.166L381.083,379.89L378.85,379.89L379.501,376.146L381.733,376.129L381.944,374.529C382.225,372.384 382.97,370.712 384.177,369.51C385.384,368.309 386.942,367.72 388.852,367.744C389.427,367.744 390.2,367.861 391.173,368.095L390.768,372.103C390.335,371.974 389.942,371.91 389.591,371.91C388.102,371.91 387.188,372.777 386.848,374.511L386.602,376.146L389.485,376.146L388.835,379.89L385.952,379.89L383.298,395.166L378.429,395.166Z" style="fill:rgb(156,156,156);fill-rule:nonzero;"/>
            <path d="M398.96,375.795C400.882,375.841 402.382,376.492 403.46,377.746C404.538,379 405.13,380.681 405.235,382.791L405.235,384.039C405.083,387.718 404.201,390.569 402.59,392.59C400.978,394.612 398.878,395.588 396.288,395.517C394.776,395.482 393.528,395.075 392.544,394.296C391.559,393.516 390.853,392.435 390.426,391.052C389.998,389.67 389.878,388.082 390.065,386.289L390.171,385.339C390.511,382.351 391.466,379.999 393.036,378.282C394.606,376.565 396.581,375.736 398.96,375.795ZM394.846,388.275C394.846,390.302 395.468,391.351 396.71,391.421C398.397,391.515 399.493,390.226 399.997,387.554L400.19,386.289C400.354,384.601 400.436,383.517 400.436,383.037C400.436,381.021 399.798,379.972 398.52,379.89C397.595,379.843 396.833,380.271 396.235,381.173C395.638,382.076 395.257,383.379 395.093,385.085C394.929,386.79 394.846,387.853 394.846,388.275Z" style="fill:rgb(156,156,156);fill-rule:nonzero;"/>
            <path d="M418.225,380.927L416.679,380.752C415.378,380.728 414.329,381.343 413.532,382.597L411.335,395.166L406.466,395.166L409.77,376.146L414.323,376.129L413.936,378.22C414.511,377.306 415.073,376.665 415.624,376.296C416.175,375.926 416.766,375.742 417.399,375.742C417.774,375.742 418.272,375.83 418.893,376.005L418.225,380.927Z" style="fill:rgb(156,156,156);fill-rule:nonzero;"/>
            <path d="M444.153,395.166L439.126,395.166L441.024,384.214L433.659,384.214L431.761,395.166L426.716,395.166L431.145,369.572L436.19,369.572L434.397,379.925L441.763,379.925L443.573,369.572L448.6,369.572L444.153,395.166Z" style="fill:rgb(156,156,156);fill-rule:nonzero;"/>
            <path d="M457.653,393.425C456.458,394.855 455.063,395.558 453.47,395.535C452.227,395.523 451.231,395.104 450.481,394.278C449.731,393.452 449.298,392.324 449.18,390.894C449.11,390.062 449.116,389.248 449.198,388.451L451.255,376.146L456.106,376.146L454.05,388.521L453.997,389.382C453.95,389.968 454.035,390.443 454.252,390.806C454.469,391.17 454.794,391.357 455.227,391.369C456.188,391.404 457.067,390.918 457.864,389.91L460.255,376.146L465.159,376.146L461.854,395.166L457.337,395.166L457.653,393.425Z" style="fill:rgb(156,156,156);fill-rule:nonzero;"/>
            <path d="M473.263,376.129L472.946,377.921C474.259,376.457 475.753,375.748 477.429,375.795C479.245,375.841 480.429,376.697 480.979,378.361C482.421,376.603 484.026,375.742 485.796,375.777C487.132,375.8 488.154,376.301 488.863,377.28C489.572,378.258 489.921,379.65 489.909,381.455L489.821,383.072L487.817,395.166L482.948,395.166L484.97,383.037L485.057,382.052C485.151,380.646 484.682,379.943 483.651,379.943C482.819,379.943 482.057,380.511 481.366,381.648L481.261,382.492L479.063,395.166L474.212,395.166L476.216,383.072L476.321,382.088C476.415,380.658 475.952,379.943 474.932,379.943C474.44,379.943 474.021,380.081 473.676,380.356C473.33,380.631 473.011,380.957 472.718,381.332L470.309,395.166L465.458,395.166L468.763,376.146L473.263,376.129Z" style="fill:rgb(156,156,156);fill-rule:nonzero;"/>
            <path d="M500.561,395.166C500.468,394.767 500.421,394.275 500.421,393.689C499.343,394.92 498.112,395.535 496.729,395.535C495.264,395.511 494.09,394.972 493.205,393.918C492.32,392.863 491.913,391.55 491.983,389.98C492.089,387.964 492.874,386.385 494.339,385.243C495.804,384.1 497.772,383.529 500.245,383.529L501.669,383.529L501.897,381.982L501.95,381.191C501.95,380.171 501.54,379.662 500.72,379.662C499.583,379.627 498.891,380.353 498.645,381.841L493.811,381.877C493.917,380.072 494.667,378.598 496.061,377.456C497.456,376.313 499.155,375.754 501.159,375.777C503.046,375.824 504.49,376.419 505.492,377.561C506.494,378.704 506.901,380.213 506.714,382.088L505.167,391.755L505.096,392.687C505.05,393.507 505.132,394.228 505.343,394.849L505.325,395.166L500.561,395.166ZM498.065,391.65C498.921,391.673 499.718,391.298 500.456,390.525L501.317,386.5L500.263,386.5C499.325,386.546 498.569,386.863 497.995,387.449C497.421,388.035 497.075,388.773 496.958,389.664L496.94,390.332C496.94,390.707 497.037,391.017 497.23,391.263C497.424,391.509 497.702,391.638 498.065,391.65Z" style="fill:rgb(156,156,156);fill-rule:nonzero;"/>
            <path d="M515.837,376.129L515.485,378.045C516.821,376.486 518.304,375.73 519.932,375.777C521.268,375.8 522.285,376.301 522.982,377.28C523.679,378.258 524.022,379.65 524.011,381.455L523.905,383.072L521.884,395.166L517.014,395.166L519.018,383.037L519.106,382C519.153,380.629 518.638,379.943 517.559,379.943C517.055,379.943 516.628,380.081 516.276,380.356C515.925,380.631 515.596,380.957 515.292,381.332L512.884,395.166L507.997,395.166L511.302,376.146L515.837,376.129Z" style="fill:rgb(156,156,156);fill-rule:nonzero;"/>
            <path d="M530.585,395.166L525.716,395.166L529.02,376.146L533.889,376.146L530.585,395.166ZM529.653,371.312C529.653,370.504 529.908,369.844 530.418,369.335C530.928,368.825 531.552,368.57 532.29,368.57C533.016,368.546 533.635,368.784 534.144,369.282C534.654,369.78 534.909,370.398 534.909,371.136C534.909,371.957 534.654,372.622 534.144,373.131C533.635,373.641 533.011,373.896 532.272,373.896C531.522,373.92 530.898,373.682 530.4,373.184C529.902,372.686 529.653,372.062 529.653,371.312Z" style="fill:rgb(156,156,156);fill-rule:nonzero;"/>
            <path d="M544.225,371.47L543.417,376.146L545.878,376.146L545.227,379.89L542.766,379.89L541.149,389.47L541.096,390.033C541.05,390.818 541.378,391.222 542.081,391.246C542.28,391.257 542.679,391.228 543.276,391.158L542.837,395.06C542.11,395.353 541.266,395.5 540.305,395.5C538.888,395.476 537.821,394.966 537.106,393.97C536.391,392.974 536.116,391.615 536.28,389.892L537.915,379.89L535.77,379.89L536.421,376.146L538.548,376.146L539.374,371.47L544.225,371.47Z" style="fill:rgb(156,156,156);fill-rule:nonzero;"/>
            <path d="M552.68,386.798L556.987,376.146L562.296,376.146L552.487,398.031C551.772,399.742 550.94,400.981 549.991,401.749C549.042,402.516 547.946,402.9 546.704,402.9C546.2,402.9 545.485,402.777 544.559,402.531L544.981,398.646L545.509,398.681C546.833,398.705 547.805,398.113 548.427,396.906L549.235,395.095L547.266,376.146L552.346,376.146L552.68,386.798Z" style="fill:rgb(156,156,156);fill-rule:nonzero;"/>
        </g>
    </g>
</svg>
